<?xml version="1.0" encoding="UTF-8" standalone="no"?>
<!-- Created with Inkscape (http://www.inkscape.org/) -->

<svg
   width="250mm"
   height="179mm"
   viewBox="0 0 250 179"
   version="1.1"
   id="svg28409"
   inkscape:version="1.2.2 (b0a84865, 2022-12-01)"
   sodipodi:docname="M&amp;Mfigura4.svg"
   xmlns:inkscape="http://www.inkscape.org/namespaces/inkscape"
   xmlns:sodipodi="http://sodipodi.sourceforge.net/DTD/sodipodi-0.dtd"
   xmlns="http://www.w3.org/2000/svg"
   xmlns:svg="http://www.w3.org/2000/svg">
  <sodipodi:namedview
     id="namedview28411"
     pagecolor="#ffffff"
     bordercolor="#000000"
     borderopacity="0.25"
     inkscape:showpageshadow="2"
     inkscape:pageopacity="0.0"
     inkscape:pagecheckerboard="0"
     inkscape:deskcolor="#d1d1d1"
     inkscape:document-units="mm"
     showgrid="false"
     inkscape:zoom="0.2102413"
     inkscape:cx="-19.025757"
     inkscape:cy="561.25984"
     inkscape:window-width="1367"
     inkscape:window-height="456"
     inkscape:window-x="0"
     inkscape:window-y="371"
     inkscape:window-maximized="0"
     inkscape:current-layer="layer1" />
  <defs
     id="defs28406" />
  <g
     inkscape:label="Capa 1"
     inkscape:groupmode="layer"
     id="layer1">
    <g
       id="g28226"
       transform="matrix(3.1872595,0,0,3.1872595,-419.3245,-114.41961)">
      <path
         style="fill:#68c7d7;fill-opacity:1;stroke:none;stroke-width:0.264583;stroke-opacity:1"
         d="m 158.01699,40.93944 7.8e-4,14.01641 2.89532,2.09662 0.0593,-13.99356 z"
         id="path5557-5"
         sodipodi:nodetypes="ccccc" />
      <path
         style="fill:#68c7d7;fill-opacity:1;stroke:none;stroke-width:0.264583;stroke-opacity:1"
         d="m 175.27207,53.31383 1.4509,1.04051 -1.97905,2.26 -6.44139,0.0234 -0.0558,5.72383 -2.22113,-1.57986 0.0291,-4.13032 2.12361,-2.32953 6.0616,-0.01 z"
         id="path6819-9-1"
         sodipodi:nodetypes="cccccccccc" />
      <path
         style="fill:#68c7d7;fill-opacity:1;stroke:none;stroke-width:0.264583;stroke-opacity:1"
         d="m 170.09645,63.70078 c -0.002,10e-4 3.23074,2.25466 3.23074,2.25466 l 9.14387,0.0137 6.49933,6.34319 h 4.30841 v -2.38994 l -3.6146,-0.008 -6.21823,-6.35885 z"
         id="path7577-1"
         sodipodi:nodetypes="ccccccccc" />
      <path
         id="rect8522-0"
         style="fill:#acd64a;fill-opacity:1;stroke-width:0.330392"
         d="m 210,80.4255 -1e-5,11.893936 -36.6728,-26.363996 9.14387,0.0137 6.49933,6.3432 h 4.30841 V 69.9224 l -3.6146,-0.008 -6.21823,-6.35886 -13.34952,0.14513 -1.84976,-1.33922 0.0558,-5.72383 6.44139,-0.0234 1.97905,-2.26 C 176.72278,54.36122 210,78.507271 210,78.507271 Z"
         sodipodi:nodetypes="cccccccccccccccc" />
      <path
         style="fill:#acd64a;fill-opacity:1;stroke:none;stroke-width:0.264583;stroke-opacity:0.177083"
         d="m 160.91308,57.05247 5.11252,3.72923 0.0291,-4.13032 2.12361,-2.32953 6.0616,-0.01 1.03216,-0.99802 -14.29963,-10.25492 z"
         id="path10640-8"
         sodipodi:nodetypes="cccccccc" />
      <path
         style="fill:#acd64a;fill-opacity:1;stroke:none;stroke-width:0.264583;stroke-opacity:1"
         d="m 158.01699,40.93944 8e-4,14.01641 -26.45508,-19.05679 19.17505,-3e-6 z"
         id="path10733-9"
         sodipodi:nodetypes="ccccc" />
      <path
         id="path10892-5-3"
         style="fill:#acd64a;fill-opacity:1;stroke:none;stroke-width:0.377928;stroke-opacity:1"
         d="m 177.8602,38.3899 a 4.0433955,3.9026041 0 0 0 -4.04316,3.90261 4.0433955,3.9026041 0 0 0 4.04316,3.9026 4.0433955,3.9026041 0 0 0 4.04368,-3.9026 4.0433955,3.9026041 0 0 0 -4.04368,-3.90261 z m 0,1.5875 a 2.2674625,2.3151057 0 0 1 2.26756,2.31511 2.2674625,2.3151057 0 0 1 -2.26756,2.3151 2.2674625,2.3151057 0 0 1 -2.26756,-2.3151 2.2674625,2.3151057 0 0 1 2.26756,-2.31511 z" />
      <path
         style="fill:#acd64a;fill-opacity:1;stroke:none;stroke-width:0.264583;stroke-opacity:1"
         d="m 176.70903,46.03354 0.0139,5.61127 -1.4509,1.66902 1.4509,1.04051 1.78597,-2.26581 V 46.1446 Z"
         id="path10951-1-4"
         sodipodi:nodetypes="ccccccc" />
    </g>
  </g>
</svg>
